<svg width="7" height="11" viewBox="0 0 7 11" fill="none" xmlns="http://www.w3.org/2000/svg">
<path d="M6.29092 5.83795C6.29167 5.96956 6.2669 6.10002 6.21804 6.22186C6.16918 6.34369 6.09719 6.45451 6.00619 6.54795L2.07892 10.5479C1.98738 10.6412 1.8787 10.7151 1.75909 10.7656C1.63949 10.8161 1.51129 10.842 1.38183 10.842C1.25237 10.842 1.12417 10.8161 1.00457 10.7656C0.884961 10.7151 0.776283 10.6412 0.68474 10.5479C0.593197 10.4547 0.520581 10.344 0.471038 10.2222C0.421495 10.1004 0.395996 9.96981 0.395996 9.83795C0.395996 9.70609 0.421495 9.57552 0.471038 9.4537C0.52058 9.33188 0.593197 9.22119 0.68474 9.12795L3.93456 5.83795L0.812376 2.53795C0.711946 2.44596 0.631232 2.33385 0.575282 2.20864C0.519332 2.08342 0.48935 1.9478 0.487211 1.81025C0.485071 1.67269 0.510819 1.53617 0.562847 1.40921C0.614874 1.28226 0.692062 1.1676 0.78958 1.07242C0.887099 0.977232 1.00285 0.903563 1.1296 0.85602C1.25635 0.808476 1.39136 0.788082 1.5262 0.79611C1.66104 0.804138 1.7928 0.840417 1.91325 0.902677C2.03369 0.964938 2.14023 1.05184 2.22619 1.15795L6.01601 5.15795C6.18912 5.34082 6.28741 5.58395 6.29092 5.83795Z" fill="black"/>
</svg>
